#!OML:ASF F:\VICON\USERDATA\INSTALL\rory3\rory3.ASF
:FULLY-SPECIFIED
:DEGREES
81
root 1.3576435953195207 17.806254943575134 50.98189386767294 -4.081781401768513 -1.4811389528698842 -0.3157828250623753
lfemur 7.2856502990074254 -2.265521123363873 -20.643113426946737
ltibia 42.20745648658091
lfoot -5.423519542938866 -3.0333307380582712
ltoes -8.546231919016927
rfemur -21.97314565486664 -0.016220721812119088 24.408787610562683
rtibia 30.39125160758269
rfoot -9.370330252986799 -9.720862796327147
rtoes 3.3682516845671424
lowerback 10.480535800501912 -1.4606512642993614 -1.765502616071654
upperback -0.11051233839183126 -2.148471580702323 2.1434918475334386
thorax -5.828649544662222 -0.9874073877750668 3.9769726099191187
lowerneck -16.729786222390644 -3.019944550061222 -1.9576355539292165
upperneck 22.121267876357585 -3.8155414988081993 0.873367542134412
head 9.85917390569609 -1.884142204062679 0.16860243268050285
lclavicle -2.5203595975412735e-15 -2.736755118169206e-15
lhumerus -30.990059443089095 2.3608177798769203 82.59681232904305
lradius 21.655134863143108
lwrist 11.074825472774664
lhand -29.938284199355742 18.466997485217984
lfingers nan
lthumb -3.205766598812085 48.481506350425306
rclavicle -2.4892570082722707e-15 -2.720693678927644e-15
rhumerus -32.529208942430394 -23.267211442631613 -75.14485825314692
rradius 31.56710250396098
rwrist 2.9840598775251617
rhand -17.7652324740871 21.68267833183054
rfingers nan
rthumb 8.337505040817884 -8.062684542044835
82
root 1.3729359185841568 17.81272855620482 50.892725525254676 -3.9300704601217653 -1.5067159399271668 -2.579918586633019
lfemur 4.835056288043276 -1.526563007362344 -17.158609151943875
ltibia 46.273140931607
lfoot -6.577726183141199 -1.3426439814297098
ltoes -10.238693090011372
rfemur -20.043049306561315 0.8600726531073954 26.793692074236997
rtibia 29.87374315578301
rfoot -10.335299569851403 -10.136942853386724
rtoes 2.2458568176216596
lowerback 10.43054611898222 -1.2941183470049036 -0.03561743632155889
upperback -0.12044108368716883 -1.5503693311945572 2.510656796027464
thorax -5.963765882050747 -0.7319333846300173 3.4977021138477546
lowerneck -16.821007819817662 -3.0862800480118944 -1.833127150445119
upperneck 21.97946285592022 -3.9390001446642557 0.8368537538610002
head 9.818769732961348 -1.9300366645373044 0.11280623818165833
lclavicle -2.5198497133417293e-15 -2.737111917632794e-15
lhumerus -31.926082283682344 3.13759134630161 82.60875419185645
lradius 22.10483098888866
lwrist 11.397546998774125
lhand -29.981022194640175 18.53730455219682
lfingers nan
lthumb -3.2799151378084597 48.442677273315034
rclavicle -2.4900952878157045e-15 -2.721740617753773e-15
rhumerus -31.803016432029647 -22.870268868378783 -74.95316285250266
rradius 31.578955469295305
rwrist 2.8779742097325753
rhand -17.747994479659077 21.723543170752652
rfingers nan
rthumb 8.372829905250738 -7.966559872026844
83
root 1.3766281096564328 17.819854924127192 51.01417715450251 -3.8021791926600765 -1.3428940383435692 -4.555411769671642
lfemur 1.3205132925368996 -0.887865112565249 -14.127936079210155
ltibia 50.69623244194668
lfoot -7.397662989961008 -0.09997536605756263
ltoes -10.940735103890738
rfemur -17.350394197364935 1.6401469392273018 28.649553084094414
rtibia 29.09287077722108
rfoot -11.077915113572152 -10.510302615881916
rtoes 1.0169655965396895
lowerback 10.455770318413602 -1.0318604205406854 1.5489741716167762
upperback -0.16220306852168537 -0.8469431781991363 2.7721108713954883
thorax -6.1576013856483405 -0.4032515516323826 2.850469470823586
lowerneck -16.93933400665493 -3.171799103592649 -1.6606113965664557
upperneck 21.829970593871536 -4.101628200208116 0.8057343613509582
head 9.779265393114072 -1.9896683511089588 0.05026623145581627
lclavicle -2.516477000734079e-15 -2.7367884988671578e-15
lhumerus -32.745683195083004 3.8603529996722825 82.57845835429258
lradius 22.714860586732616
lwrist 11.695317884609779
lhand -29.97340525050408 18.417785343641057
lfingers nan
lthumb -3.264515238782238 48.36963063762488
rclavicle -2.4895576946020128e-15 -2.7227033761231336e-15
rhumerus -31.09979333217954 -22.35262287619232 -74.84555660779913
rradius 31.630646939388573
rwrist 2.7629860119899887
rhand -17.75035703460608 21.72330576385708
rfingers nan
rthumb 8.38851741557962 -7.897271112974886
84
root 1.3863386718702424 17.84168367539654 51.62521297304763 -3.389441863153001 -1.0217474461635265 -6.023191830555578
lfemur -2.589140511568063 -0.37907693502387074 -11.975735946252634
ltibia 54.746591907365115
lfoot -7.316030927300925 0.4192544433398746
ltoes -12.461047213120843
rfemur -13.96370076600447 2.064842334757016 30.11757547045533
rtibia 27.97077065662709
rfoot -11.248111367506777 -10.658308220811959
rtoes -0.054956149931346676
lowerback 10.429277366045648 -0.8032705973316072 2.808229062302588
upperback -0.19784477845555717 -0.29480112673037756 2.827263424204334
thorax -6.291912834314671 -0.14072161086578203 2.251093388401897
lowerneck -17.068724725276947 -3.2762890653130934 -1.4724268371526315
upperneck 21.663779022259526 -4.308252621760513 0.791340932892954
head 9.731419311142028 -2.0649641369482867 -0.012083559301279495
lclavicle -2.5134149982867198e-15 -2.737304690225018e-15
lhumerus -33.328960489499735 4.512540011294558 82.53339452646871
lradius 23.393156882342083
lwrist 11.890084718536087
lhand -29.912810135910085 18.338546719632266
lfingers nan
lthumb -3.1988970013429987 48.35847555505243
rclavicle -2.4893951587163007e-15 -2.7243327704052987e-15
rhumerus -30.421196703377525 -21.718156674584478 -74.78364793899318
rradius 31.72568259534578
rwrist 2.6416790154990726
rhand -17.70074199045528 21.816439437067167
rfingers nan
rthumb 8.449927459396182 -7.7296967177058695
85
root 1.4096362802095606 17.888633266340598 51.57707239510238 -3.0986482498516303 -0.5943084823150131 -6.576230719789304
lfemur -6.50518749590456 -0.14035092210983713 -11.295220348585797
ltibia 57.8357097115352
lfoot -7.813248812200346 -0.5652720845601356
ltoes -13.259667452302631
rfemur -10.990363665630236 2.1041700163596415 30.608945964921194
rtibia 27.348271179660134
rfoot -10.74919836753503 -10.512555343118276
rtoes -0.8450045903029184
lowerback 10.3686806204192 -0.538988043574581 3.4727393644291826
upperback -0.2228560289606359 0.16154928803352336 2.756014787501788
thorax -6.325084677730234 0.06705924516753825 1.6775466096369518
lowerneck -17.126401562827684 -3.3985706571011254 -1.3259616866433124
upperneck 21.50016717234763 -4.551951811815236 0.8042581461046375
head 9.67830700766633 -2.153103540925396 -0.06533961371075422
lclavicle -2.5117737825299135e-15 -2.738619139633714e-15
lhumerus -33.64234288001036 4.979505793509604 82.48745366691243
lradius 24.05241688476439
lwrist 11.962410794037961
lhand -29.870421793930685 18.232888152549908
lfingers nan
lthumb -3.1548417936905575 48.334519949689366
rclavicle -2.4911119687591585e-15 -2.7270233811917815e-15
rhumerus -29.83260207500704 -21.0603622404069 -74.71124605703397
rradius 31.869550662092095
rwrist 2.5290976639782405
rhand -17.684814862207237 21.84548061850919
rfingers nan
rthumb 8.468144978337612 -7.648587080369767
